<svg width="33" height="34" viewBox="0 0 33 34" fill="none" xmlns="http://www.w3.org/2000/svg">
<g id="ep:arrow-up">
<path id="Vector" d="M17.2467 22.1498L28.1986 10.6555C28.3814 10.4637 28.4834 10.2089 28.4834 9.94396C28.4834 9.67899 28.3814 9.42418 28.1986 9.2324L28.1862 9.22002C28.0976 9.12672 27.9909 9.05243 27.8726 9.00167C27.7544 8.9509 27.627 8.92472 27.4984 8.92472C27.3697 8.92472 27.2423 8.9509 27.1241 9.00167C27.0058 9.05243 26.8991 9.12672 26.8105 9.22002L16.498 20.044L6.18964 9.22002C6.10101 9.12672 5.99432 9.05243 5.87607 9.00167C5.75782 8.9509 5.63048 8.92472 5.50179 8.92472C5.37311 8.92472 5.24577 8.9509 5.12752 9.00167C5.00927 9.05243 4.90258 9.12672 4.81395 9.22002L4.80158 9.2324C4.61875 9.42418 4.51675 9.67899 4.51675 9.94396C4.51675 10.2089 4.61875 10.4637 4.80158 10.6555L15.7535 22.1498C15.8498 22.2509 15.9656 22.3314 16.0939 22.3864C16.2223 22.4414 16.3605 22.4697 16.5001 22.4697C16.6397 22.4697 16.7779 22.4414 16.9062 22.3864C17.0346 22.3314 17.1504 22.2509 17.2467 22.1498Z" fill="black"/>
</g>
</svg>
